<?xml version="1.0" standalone="no"?>
<!DOCTYPE svg PUBLIC "-//W3C//DTD SVG 20010904//EN"
 "http://www.w3.org/TR/2001/REC-SVG-20010904/DTD/svg10.dtd">
<svg version="1.0" xmlns="http://www.w3.org/2000/svg"
 width="568.000000pt" height="900.000000pt" viewBox="0 0 568.000000 900.000000"
 preserveAspectRatio="xMidYMid meet">
<metadata>
Created by potrace 1.15, written by Peter Selinger 2001-2017
</metadata>
<g transform="translate(0.000000,900.000000) scale(0.100000,-0.100000)"
fill="#000000" stroke="none">
<path d="M2770 8771 c0 -3 -66 -7 -148 -8 -104 -1 -160 -6 -192 -17 -25 -9
-51 -16 -59 -16 -8 0 -33 -9 -56 -20 -22 -11 -75 -25 -118 -32 -69 -10 -77
-14 -77 -34 0 -26 -7 -29 -127 -59 -109 -28 -258 -100 -396 -192 -107 -71
-175 -144 -242 -260 -22 -37 -63 -93 -91 -123 -51 -54 -136 -171 -155 -214 -5
-11 -30 -57 -54 -101 -25 -44 -59 -109 -76 -145 -17 -36 -46 -96 -65 -135
-129 -270 -151 -415 -108 -745 26 -206 35 -254 60 -316 31 -81 55 -236 52
-337 -2 -45 1 -90 6 -99 7 -16 2 -18 -43 -18 -57 0 -71 -14 -73 -74 -1 -27 -6
-36 -22 -38 -20 -3 -21 -9 -19 -93 1 -87 51 -375 75 -433 6 -15 14 -80 18
-144 8 -131 21 -162 69 -173 24 -5 30 -12 35 -43 10 -61 12 -175 4 -200 -13
-37 2 -133 24 -151 10 -8 18 -20 18 -25 0 -5 11 -24 25 -42 13 -17 27 -50 31
-73 4 -23 10 -44 14 -46 5 -3 6 -23 3 -45 -5 -36 -3 -40 16 -40 20 0 20 -2 7
-22 -18 -29 -18 -104 0 -119 8 -6 14 -22 14 -36 0 -13 7 -31 15 -40 12 -12 14
-26 9 -61 -6 -38 -4 -44 9 -39 18 7 32 -32 17 -47 -17 -17 -11 -36 14 -46 19
-7 26 -19 31 -54 4 -25 14 -51 22 -57 10 -9 12 -23 8 -49 -5 -32 -3 -38 14
-43 13 -3 21 -13 21 -26 0 -12 9 -30 21 -42 11 -11 18 -27 15 -34 -3 -8 -1
-17 4 -20 5 -3 7 -12 3 -20 -3 -8 0 -15 6 -15 13 0 60 -50 61 -63 0 -4 16 -30
35 -58 19 -28 35 -57 35 -65 0 -7 13 -29 30 -47 18 -21 34 -53 39 -83 16 -78
31 -214 31 -277 0 -32 5 -89 11 -127 7 -37 9 -79 6 -92 -4 -12 -39 -57 -79
-99 -65 -67 -89 -85 -218 -152 -316 -164 -854 -401 -1128 -497 l-152 -53 0
-948 0 -949 2840 0 2840 0 -1 1093 c0 600 -3 1086 -6 1078 -4 -10 -9 -8 -18 9
-13 23 -13 23 -19 2 -9 -26 -39 -37 -65 -23 -11 6 -33 11 -50 11 -36 0 -71 8
-281 62 -179 46 -214 60 -310 122 -39 25 -93 57 -121 71 -50 26 -379 119 -387
110 -8 -8 29 -44 113 -110 100 -78 165 -147 190 -204 18 -42 19 -47 3 -140
-21 -117 -60 -255 -93 -326 -29 -60 -159 -195 -252 -262 -55 -39 -80 -48 -215
-82 -84 -21 -246 -66 -360 -99 l-206 -61 -96 9 c-52 5 -107 12 -122 16 -35 9
-94 67 -94 92 0 11 -7 25 -15 32 -8 7 -15 18 -15 25 0 7 -9 24 -21 39 l-20 26
23 0 c45 0 66 43 27 55 l-21 7 22 23 22 23 -21 7 c-27 8 -27 22 -1 30 25 8 26
24 3 40 -16 12 -17 15 -2 32 19 20 19 95 0 101 -15 5 -14 22 2 22 7 0 20 24
29 53 15 45 15 53 2 63 -11 9 -12 18 -4 39 10 26 12 27 29 11 20 -18 47 -21
56 -6 3 6 -1 10 -9 10 -9 0 -16 5 -16 11 0 7 7 8 18 4 44 -18 56 -19 49 -2 -4
10 -10 23 -13 31 -4 10 3 15 23 18 22 2 28 8 26 24 -2 14 13 35 42 62 51 47
58 72 19 72 -14 0 -23 4 -19 10 3 6 14 10 24 10 10 0 31 10 47 22 19 15 42 23
71 23 46 0 52 5 28 25 -12 10 -11 16 7 41 12 16 28 29 36 29 7 0 22 5 33 10
16 9 17 14 6 31 -10 17 -9 23 9 38 12 9 27 27 33 40 9 16 19 21 33 18 45 -12
108 35 108 81 0 15 5 33 11 39 15 15 3 33 -22 33 -27 0 -24 15 7 35 22 14 30
15 49 5 30 -16 41 -8 56 38 7 20 22 51 33 67 31 42 49 93 51 141 1 22 11 61
23 85 12 26 22 65 22 89 0 24 9 62 19 84 49 104 94 195 121 241 16 28 29 58
29 68 1 9 6 17 11 17 6 0 10 8 10 18 0 10 13 38 29 63 34 52 47 110 31 140
-11 19 -10 20 9 14 27 -8 38 17 22 51 -9 20 -8 31 5 57 9 18 23 36 30 40 8 4
14 23 14 42 0 18 6 35 13 38 9 3 9 9 -1 26 -7 12 -8 21 -2 21 5 0 10 13 10 28
0 16 7 44 16 62 9 18 18 56 20 84 2 28 11 76 19 106 8 30 15 71 15 92 0 27 8
47 30 71 34 39 36 47 15 47 -19 0 -19 45 0 125 8 33 15 88 15 122 0 34 5 65
10 68 6 3 10 19 10 34 0 38 26 98 54 124 38 37 89 208 66 222 -5 3 -10 14 -10
24 0 10 -23 46 -51 81 l-51 64 6 81 c4 44 6 112 6 152 -1 81 10 111 64 162 19
19 38 47 41 62 4 16 11 31 16 34 5 4 9 21 9 39 0 25 5 35 20 39 12 3 20 14 20
26 0 12 7 33 16 47 11 16 15 36 11 62 -3 20 -2 46 3 57 7 18 8 19 15 3 15 -38
27 -17 23 41 -3 46 -1 58 9 54 17 -7 17 15 -1 64 -17 48 -5 281 15 294 9 5 10
34 1 126 -6 65 -14 170 -17 233 -3 63 -13 144 -22 180 -8 36 -19 85 -23 110
-4 25 -16 68 -27 95 -19 49 -116 223 -154 277 -11 14 -19 33 -19 42 0 9 -4 16
-10 16 -5 0 -10 5 -10 11 0 7 -23 53 -52 103 -56 97 -124 173 -181 203 -50 26
-307 203 -307 212 0 20 -107 112 -167 144 -37 20 -86 54 -108 76 -24 26 -48
41 -63 41 -15 0 -26 7 -29 20 -6 22 -18 26 -29 9 -5 -8 -9 -7 -16 4 -11 21
-65 47 -98 47 -15 0 -60 21 -101 48 l-74 47 -107 2 c-86 1 -115 6 -145 22 -24
12 -75 23 -140 30 -56 6 -123 18 -150 27 -54 19 -133 34 -133 25z m852 -662
c33 -17 38 -22 27 -35 -10 -13 -10 -17 2 -25 8 -5 19 -9 25 -9 7 0 14 -7 18
-15 4 -10 20 -15 50 -15 40 0 46 -3 52 -25 6 -24 34 -36 34 -14 0 6 19 -4 41
-22 23 -18 37 -35 30 -37 -21 -7 -11 -21 27 -33 20 -7 43 -20 50 -30 7 -10 59
-73 117 -140 58 -67 105 -126 105 -131 0 -4 7 -16 15 -25 48 -54 185 -261 228
-343 28 -52 59 -108 70 -123 30 -44 39 -91 46 -237 3 -74 11 -142 16 -150 10
-15 20 -166 31 -482 6 -163 0 -198 -34 -198 -10 0 -22 4 -27 9 -6 5 -66 23
-134 40 -117 29 -201 67 -201 91 0 5 -16 16 -35 24 -19 8 -38 22 -41 31 -3 8
-13 15 -20 15 -8 0 -17 7 -20 15 -3 8 -31 27 -62 42 -47 23 -72 28 -142 29
-143 3 -375 23 -405 34 -15 6 -62 13 -104 16 -42 3 -88 10 -103 16 -20 7 -32
6 -53 -8 -23 -15 -31 -15 -65 -4 -22 7 -40 17 -40 22 0 5 -18 8 -40 7 -34 -3
-45 2 -74 30 -45 43 -66 37 -67 -21 -1 -24 -3 -35 -6 -25 -7 27 -30 20 -36
-12 -6 -30 -7 -30 -37 -15 -16 9 -30 22 -30 30 0 9 -11 14 -35 14 -29 0 -39 6
-53 30 -21 37 -27 37 -44 3 -13 -27 -17 -28 -83 -27 -62 0 -78 5 -138 38 -37
21 -75 49 -84 62 -8 13 -24 24 -34 24 -25 0 -36 27 -21 51 10 16 7 18 -36 21
l-47 3 -7 44 c-9 52 -29 77 -69 85 -39 8 -37 22 8 43 37 18 62 53 29 40 -17
-7 -22 8 -6 18 7 4 7 12 0 25 -14 27 -12 32 10 25 16 -5 20 -2 20 19 0 16 -6
26 -15 26 -8 0 -15 5 -15 10 0 14 28 12 33 -2 3 -10 7 -10 20 0 9 8 21 11 27
7 6 -4 10 4 10 19 0 19 5 26 19 26 30 0 51 -11 51 -26 0 -18 14 -18 30 1 7 8
21 15 31 15 19 0 23 9 20 42 -1 9 3 19 9 23 5 3 10 15 10 26 0 26 -30 25 -66
-3 -16 -12 -24 -16 -17 -7 8 10 12 53 10 133 -2 112 -3 117 -22 112 -11 -3
-34 -6 -52 -6 -23 0 -33 -6 -38 -20 -3 -11 -13 -20 -20 -20 -14 0 -52 -47 -44
-54 2 -1 24 -7 49 -12 37 -8 48 -15 67 -49 29 -52 29 -54 -9 -46 -26 5 -34 13
-39 36 -5 26 -7 28 -14 11 -8 -18 -10 -17 -31 10 -22 27 -24 28 -37 10 -13
-18 -15 -17 -35 12 -12 16 -22 37 -22 46 0 9 -9 25 -20 36 -12 12 -15 22 -9
26 6 3 3 11 -7 18 -15 11 -12 14 21 19 47 8 51 5 58 -33 4 -17 13 -30 21 -30
16 0 22 23 35 135 7 54 10 64 16 46 7 -22 12 -23 60 -17 51 6 53 5 60 -21 7
-28 21 -43 41 -43 21 0 23 55 4 110 -17 47 -28 118 -13 83 9 -23 21 -14 27 20
6 32 52 85 69 79 15 -4 137 69 148 89 11 22 60 26 105 9 35 -14 42 -5 14 18
-22 18 -22 18 19 14 30 -3 42 0 47 11 3 9 13 13 24 10 13 -4 19 1 22 19 3 20
8 23 38 20 19 -2 42 -10 51 -18 20 -18 29 -18 29 1 0 10 11 15 35 15 37 0 46
13 18 28 -14 9 -14 10 5 16 26 8 42 1 42 -20 0 -20 36 -17 52 5 7 10 27 25 43
35 17 9 37 20 45 25 8 6 48 24 88 42 49 22 71 37 67 46 -3 7 -8 20 -11 28 -4
10 0 15 14 15 12 0 24 5 27 10 4 6 16 8 27 4 24 -7 38 9 38 45 0 22 3 23 41
17 22 -4 59 -16 81 -27z m980 -2359 c24 -115 29 -331 14 -597 -8 -150 -20
-282 -26 -292 -5 -11 -10 -32 -10 -47 0 -15 -9 -46 -19 -68 -10 -23 -24 -66
-31 -96 -7 -30 -18 -64 -25 -76 -7 -11 -16 -46 -20 -77 -4 -31 -11 -57 -16
-57 -5 0 -9 -6 -9 -14 0 -8 -7 -17 -15 -20 -9 -3 -15 -11 -14 -18 3 -30 -14
-57 -35 -55 -15 1 -20 -3 -18 -15 2 -11 -3 -18 -13 -18 -8 0 -15 -9 -15 -20 0
-11 -9 -34 -19 -52 -22 -34 -19 -51 5 -41 12 4 15 1 12 -13 -2 -11 -13 -20
-26 -22 -26 -4 -28 -20 -4 -38 15 -12 10 -13 -35 -14 -59 0 -70 -10 -49 -42 7
-13 17 -33 21 -46 6 -21 4 -22 -19 -16 -15 4 -32 1 -41 -6 -11 -10 -20 -8 -41
9 -28 22 -74 29 -74 11 0 -5 16 -28 36 -50 30 -33 33 -41 20 -46 -9 -3 -23 -1
-30 5 -8 7 -25 9 -39 6 -18 -5 -36 1 -67 24 -73 53 -113 33 -45 -22 43 -34 46
-57 6 -57 -15 0 -40 -9 -55 -21 -28 -22 -46 -18 -46 9 0 10 -12 35 -27 57 -19
28 -27 52 -26 78 0 31 -4 40 -22 47 -23 9 -55 73 -55 110 0 11 -7 20 -15 20
-9 0 -15 -10 -15 -26 0 -22 -3 -24 -22 -19 -13 4 -28 13 -33 20 -6 6 -24 14
-40 17 -17 3 -56 12 -88 19 -44 10 -62 11 -77 2 -14 -10 -19 -9 -24 2 -7 19
-30 19 -46 0 -15 -18 -30 -11 -30 14 0 11 -19 28 -50 45 -55 30 -61 41 -29 49
36 10 11 27 -30 21 -36 -6 -39 -4 -44 22 -3 17 0 35 8 44 7 8 17 27 20 43 9
33 28 35 124 8 68 -19 92 -32 205 -112 l58 -41 27 20 c39 30 33 87 -14 128
-19 17 -35 38 -35 46 0 8 -14 27 -30 43 -17 16 -30 37 -30 47 0 10 -4 18 -9
18 -5 0 -14 15 -20 33 -12 34 -90 132 -99 123 -2 -3 -27 12 -55 34 -27 22 -53
40 -57 40 -5 0 -13 14 -19 30 -12 37 -28 38 -42 3 -7 -19 -6 -49 5 -107 32
-175 30 -196 -17 -171 -15 7 -27 12 -27 10 0 -1 -21 3 -47 11 -54 16 -109 18
-118 4 -6 -10 -51 -4 -70 10 -5 4 -52 10 -103 13 -79 5 -97 9 -122 31 l-30 25
25 19 c34 27 31 39 -10 59 -27 13 -32 19 -24 30 9 10 7 20 -6 40 -10 15 -22
57 -26 93 -5 36 -11 84 -15 107 -5 34 -2 48 15 69 17 21 19 30 9 48 -6 11 -15
50 -19 86 -3 36 -14 102 -22 147 -14 72 -14 86 -2 110 8 16 15 44 15 64 0 108
84 209 174 209 37 0 76 -54 175 -240 114 -216 149 -279 172 -312 11 -14 19
-32 19 -40 0 -7 12 -19 28 -25 15 -7 39 -22 53 -34 21 -17 44 -22 115 -26 49
-3 94 -9 99 -13 6 -4 27 -10 47 -14 73 -13 172 -61 186 -89 9 -18 21 -27 38
-27 13 0 24 5 24 10 0 6 -5 10 -11 10 -5 0 -7 5 -4 10 10 17 40 11 75 -15 19
-14 42 -25 52 -25 10 0 18 -4 18 -10 0 -5 7 -10 15 -10 11 0 15 12 15 44 0 25
5 48 10 51 7 4 6 13 -1 26 -6 11 -7 34 -4 50 9 40 -17 69 -61 69 -24 0 -37 6
-45 21 -10 20 -30 79 -26 79 1 0 67 11 147 24 174 29 292 65 348 106 46 33 97
129 126 235 22 78 37 115 46 115 4 0 24 16 44 36 48 48 87 45 98 -6z m-282
-122 c-20 -113 -54 -165 -142 -215 -92 -52 -125 -60 -272 -69 -115 -7 -119 -6
-111 12 5 10 9 37 9 58 1 30 7 43 28 59 37 28 182 57 292 60 l90 2 27 52 c31
59 79 126 86 119 3 -3 -1 -38 -7 -78z m-3260 -268 c6 0 10 -18 10 -40 0 -22
-4 -40 -10 -40 -5 0 -10 -7 -10 -15 0 -8 7 -15 15 -15 17 0 20 -52 6 -112 -6
-27 -6 -38 3 -38 6 0 4 -5 -4 -10 -12 -8 -13 -13 -3 -29 10 -15 10 -20 0 -24
-9 -3 -9 -10 1 -31 14 -31 16 -85 3 -104 -15 -24 -40 147 -39 268 0 64 -2 126
-6 138 -4 13 -3 22 3 22 6 0 10 15 9 33 -1 17 0 55 2 82 4 48 4 47 7 -17 2
-38 8 -68 13 -68z m2404 -1706 c-5 -18 -3 -25 7 -24 29 4 38 -1 60 -37 13 -21
28 -41 35 -45 6 -4 15 -24 19 -44 3 -20 15 -44 26 -53 18 -15 20 -24 13 -78
-5 -48 -11 -64 -25 -68 -10 -3 -27 -26 -39 -51 -20 -40 -21 -48 -9 -76 11 -28
11 -33 -6 -42 -10 -6 -27 -19 -37 -28 -10 -10 -24 -18 -31 -18 -18 0 -37 -21
-37 -41 0 -23 -29 -29 -136 -29 -64 0 -96 -4 -110 -15 -27 -21 -34 -19 -34 12
0 18 -12 36 -40 60 -64 55 -51 75 57 88 71 8 88 22 97 80 6 33 3 46 -15 69
-23 30 -13 60 11 31 15 -18 50 -20 50 -3 0 7 -14 26 -31 44 -20 21 -32 45 -36
73 -3 25 -12 42 -22 46 -9 3 -24 19 -34 36 -17 31 -18 31 -82 27 -55 -3 -65
-1 -65 12 0 17 58 50 88 50 10 0 43 7 75 15 42 11 63 12 80 4 18 -8 38 -6 88
10 86 27 91 26 83 -5z"/>
<path d="M4819 5693 c-95 -99 -98 -123 -36 -244 53 -105 77 -116 77 -35 0 31
4 56 10 56 11 0 26 51 40 147 10 65 10 75 -7 97 -10 14 -23 26 -28 26 -6 0
-31 -21 -56 -47z"/>
</g>
</svg>
